<svg xmlns="http://www.w3.org/2000/svg" width="300" height="188" fill="none"><g fill="#000" clip-path="url(#a)"><path d="M72.451 187.635c-29.754 0-51.177-19.936-51.177-49.541S42.548 88.256 72.6 88.256s51.326 20.084 51.326 49.689c0 29.606-21.572 49.69-51.475 49.69m.298-79.146c-16.811 0-28.564 11.901-28.564 29.605s11.604 29.308 28.415 29.308 28.266-11.902 28.266-29.457-11.455-29.456-28.117-29.456"/><path d="M87.818 137.945c0 10.222-5.662 16.33-15.14 16.33-9.477 0-15.288-5.898-15.288-16.181 0-5.688 1.75-10.116 4.954-12.943.962-.98 2.126-2.03 2.861-3.404a6.1 6.1 0 0 0 .735-2.932c0-2.17.01-1.278.01-3.947 0-.717.49-1.339 1.19-1.487 1.67-.342 3.648-.517 5.521-.517s3.86.175 5.531.517c.7.14 1.19.77 1.19 1.487v3.947c0 1.12.28 2.057.718 2.87.735 1.401 1.925 2.442 2.896 3.44 3.107 2.8 4.814 7.184 4.814 12.82zm66.833-47.606h20.977l35.407 95.362h-23.059l-6.992-19.638h-32.135l-7.141 19.638h-22.613zm20.084 57.574-3.719-10.265c-2.231-6.546-5.653-18.001-5.802-18.001.149 0-3.719 11.455-6.248 18.001l-3.868 10.265zm78.674 3.903s-6.993 4.192-15.149 6.607v27.715h-21.72V90.33h21.72v44.727c6.047-2.835 12.208-7.035 16.908-12.82 8.331-10.248 13.048-18.946 17.476-31.898h22.945c-1.977 6.87-5.11 15.971-9.556 24.704-5.076 9.986-11.473 18.334-15.183 22.482 0 0 24.739 40.895 29.15 48.176h-26.035z"/><path fill-rule="evenodd" d="M146.128 77.772a13.6 13.6 0 0 0-4.884-4.236 7.35 7.35 0 0 0-6.756 0c1.156.604 2.442.508 3.326 1.374h.026v.018h.009v-.018.018c-.035.245.149.219.306.219.035 0 .088-.044.096-.062h.009s-.07.07-.114.07c-.166.018-.35.035-.306-.227h-.017s-.009-.018-.018-.018c-1.269.105-2.363-.83-3.728-.743.919 2.888 2.626 4.856 5.583 5.373 2.066.315 4.175.079 6.118-.692.726-.27.787-.498.341-1.076zm-4.691-18.982c-2.59.7-4.113 2.556-4.218 4.901-.035.167-.026.342.017.508.044.166.123.315.228.455.105.131.245.236.394.315.148.07.323.114.49.114 2.59-.114 4.174-1.505 5.312-3.474.542-.945 1.514-2.214.91-2.993s-2.083-.105-3.133.184zm-6.248-3.885c-.167.394-.219.613.262.543 0-.027.018-.044.018-.07h.087a1.1 1.1 0 0 1 .438-.42c.192-.105.402-.14.621-.132 0-.008.017-.017.017-.026h.035-.008v.026h-.044c0 .009-.018.018-.026.035a1.2 1.2 0 0 0-.587.105 1.15 1.15 0 0 0-.455.411c0 .01-.017.018-.026.027 0 .008-.017.017-.017.026h-.062c-.122.429-.262.761.455 1.015 3.063 1.05 7.176-1.348 7.719-4.568.105-.648-.245-.586-.639-.648a9.4 9.4 0 0 0-3.728.254 5.64 5.64 0 0 0-2.45 1.2 5.7 5.7 0 0 0-1.61 2.205zm2.03-.376s.017-.01.017-.018l.018-.009v.018h.017s-.008 0-.017.017h-.026zm.604-.254h.043zm.183-.193v.018l-.07.061.079-.079zm2.617 13.678c.236-.577-.07-.647-.455-.796a8.47 8.47 0 0 0-4.682-.411c-2.083.438-3.632 2.18-3.632 3.99.77-.087 1.462-.595 2.591-.48l-2.459.892c2.949 1.356 7.412-.376 8.637-3.194Zm1.164 2.556a3.67 3.67 0 0 0 2.109-3.02c-.017-.314-.017-.516-.446-.516a3.07 3.07 0 0 0-1.847.832 3.06 3.06 0 0 0-.91 1.811c0 .779.228 1.2 1.094.884z" clip-rule="evenodd"/><path d="M27.085 73.466c.245-.236.429-.533.516-.866a1.9 1.9 0 0 0-.026-1.041 4.9 4.9 0 0 0-1.225-2.1 4.95 4.95 0 0 0-2.092-1.235 7.1 7.1 0 0 0-3.001-.28c-.814.105-1.147-.157-1.418-.962-.779-2.328-4.034-3.99-6.37-3.387-.307.087-.491.157-.491.56.131 2.354 3.903 5.513 6.205 5.198.42-.052.385-.28.402-.525h-.026s-.009-.017-.018-.026h.027v-.026h.035s-.01.035-.01.052a.9.9 0 0 1 .342-.052c.123.008.245.043.359.096a.85.85 0 0 1 .298.228.8.8 0 0 1 .183.323c1.278 2.608 3.265 4.175 6.293 4.07.008-.01.017-.018.017-.027m-8.121-4.918s-.009-.026-.018-.035a1.02 1.02 0 0 1-.814-.543h-.035s-.008-.017 0-.026l-.437-.157.035-.035.394.14s.009.026.009.052h.017s.009.018.018.026h.043q.118.21.315.342.2.129.438.166c.009 0 .017.018.017.035h.035s.01.018.01.026h-.027z"/><path d="M127.977 69.117a6.55 6.55 0 0 0-2.914-1.505 14 14 0 0 0-6.423.087 14.16 14.16 0 0 0-5.715 2.95c-.358.297-.603.76-1.129.822 0-.018.009-.026.009-.053-.026 0-.061 0-.087-.008-.342-.342.14-.5.236-.735a4.88 4.88 0 0 0 .438-3.22c-.07-.298-.079-.535-.526-.43-.988.254-2.231 1.864-2.301 3.09-.079 1.172.534 1.689 1.54 1.89-.026-.096-.122-.166.018-.298.043-.043.078-.061.113-.052-.017.008-.035.008-.052.026-.193.157-.018.228-.009.332-.017 0-.044-.008-.07-.008a.07.07 0 0 1 .018.044l.061-.018a12.3 12.3 0 0 1-2.888 2.66v-.043s-.009.008-.009.017v-.017s-.026.008-.035.008h.009s-.079.01-.114.01c.035 0 .07-.018.105-.01-.236-.183-.061-.393.035-.569.98-1.75.954-3.596.56-5.504-.183-.91-.49-1.164-1.295-.543-1.838 1.4-3.212 3.046-3.063 5.601q-.586-.595-.875-.472a3.45 3.45 0 0 0-1.523 1.575 3.47 3.47 0 0 0-.297 2.179c.079.438.122 1.068.77 1.068.236 0 .472-.07.683-.193.201-.123.376-.289.498-.499.744-.919.744-2.013.744-3.343.525.744.525 1.488 1.208 1.97.324-.692.621-1.313.919-1.935a3.9 3.9 0 0 1-.307 1.383c-.227.63.21.473.49.446.062-.218.167-.358.351-.358-.158.034-.254.166-.307.376h.009c-.324.91-1.199 1.216-1.908 1.671-2.205 1.383-3.351 1.383-5.513-.201-1.619-1.164-3.212-2.354-4.813-3.527l-.009-.009c-1.234-.463-2.616-.393-3.763-1.137a4.3 4.3 0 0 0 1.724-.377 4.3 4.3 0 0 0 1.444-1.04 8.5 8.5 0 0 0 2.32-4.989 5.5 5.5 0 0 0-2.39.236c-2.442.867-4.236 2.267-4.236 5.163 0 .744.254 1.042.928 1.007-.621.56-1.374.236-2.021.219a42 42 0 0 1-6.713-.84c1.436-1.252 2.512-2.495 4.017-3.23a1 1 0 0 1 .009.15c0 .743-.849 1.18-.779 1.95.044.42-.149.885.333 1.182.183.123.402.184.62.175.22-.009.43-.079.614-.201 1.32-.735 1.785-1.987 1.942-3.37.079-.752-.394-.516-.831-.516-.692.044-1.111.893-1.89.622 1.137-1.033 2.424-1.593 3.78-1.89 1.357-.316 2.783-.368 4.218-.43a5.5 5.5 0 0 1 2.38-.236c2.25-.297 4.577-.271 6.625-1.487l.324-.263c1.645-1.47 1.759-3.64 2.538-5.54.157-.192 0-.577.385-.647h-.035c.087-1.111.683-2.074.919-3.16a.796.796 0 0 1 .787-.69c2.398-.298 4.07-1.777 5.619-3.466l1.076-1.864.035.017c0-.113.14-.245 0-.34-.131-.106-.219.008-.262.148h-.018c-.438.087-.464.779-1.024.682-.324-1.12.306-2.362-.437-3.43-2.442 1.321-2.958 2.88-1.742 5.093-.227.788-.971.674-1.514.805-.998.271-1.444-.07-1.006-1.146.376-.937.691-1.917 1.12-2.818 2.161-4.393 6.485-5.706 11.28-4.384a4.6 4.6 0 0 1 1.82 0c.788-.175 1.716.245 2.433-.473-4.244-.14-8.41-2.363-12.601-.131a.1.1 0 0 1-.035.017c-.228-.21.035-.367.148-.49 2.704-3.168 2.529-6.703 1.444-10.396-.28-.954-.656-.91-1.277-.385l-2.888 2.494v.07h-.009v-.026l-.026.026h-.009s-.009.026-.018.035h-.131s-.009-.026-.009-.035h.158l.026-.053.018-.017c-.07-1.514.192-3.037-.263-4.533-.227-.692-.236-1.768-.779-1.952-.717-.236-1.269.7-1.802 1.225-2.845 2.766-3.09 6.1-.604 8.813.446-1.383.866-2.687 1.199-3.702.07 1.033-.377 2.293-.692 3.72l1.584-1.007c-.849 2.783-.175 4.98 1.497 7.21l1.776-5.11c-.035 1.812-.717 3.308-1.111 4.857.787.035.997-.928 1.724-.718-4.595 2.775-6.826 7.185-8.025 12.244a23.7 23.7 0 0 1-2.074 5.548c-1.295 2.45-2.442 3.089-5.146 2.59-4.095-.753-7.99-.586-11.665 1.75a23.8 23.8 0 0 1-5.951 2.486c.429-1.208.788-2.197 1.146-3.177.692-1.864 1.383-3.693 3.01-5.006a20.6 20.6 0 0 1 4.674-3.369c.595-.805 1.531-1.173 2.32-1.733a21.6 21.6 0 0 0 3.447-3.238c.166-.28.42-.533.385-.901.009-2.109-.28-4.21-.866-6.24a14.5 14.5 0 0 0-.49-2.529c-.64-1.689.297-2.494 1.531-3.203-.096-.288.096-.428.315-.56a26 26 0 0 0 1.462-3.824c-.43-.464-.123-1.129-.403-1.698-.394.473-.262 1.068-.656 1.418a5.1 5.1 0 0 0-1.383-3.387c-.35-.367-.586-.437-.84.079a3.83 3.83 0 0 0-.254 3.326c.315.726.761 1.575 1.838 1.04-.245 1.086-1.462 2.644-2.004 2.381-.814-.402-.683-1.391-.788-2.161-.42-2.88-.411-5.706 1.864-7.973l.324-.446v-.105h.096l.455-.324c1.497-1.505 3.475-2.126 5.382-2.896l1.05-.587c.456-.525 1.331-.577 1.681-1.514a12.6 12.6 0 0 1-3.448 1.462c-3.632.875-6.52 2.686-8.218 6.073.753-2.337 1.182-4.664-.008-7.106 1.269.551 2.152 1.733 3.614 1.995-.053-1.391-.464-2.66-.613-3.973.753 1.033.797 2.284 1.077 3.536 2.756-3.212.857-9.084-3.632-12.348-1.584 3.002-2.345 6.09-1.155 9.46a21.7 21.7 0 0 0-2.81-3.194c-.48-.455-.743-.438-1.04.201a12.4 12.4 0 0 0-1.34 6.03 6.8 6.8 0 0 0 1.497 3.85 6.74 6.74 0 0 0 3.439 2.267c-.298-1.576-.586-3.09-.875-4.595a8.2 8.2 0 0 1 1.103 3.457c.052.385 0 .823.49.919a16.3 16.3 0 0 0-.805 9.442c.55 2.39 1.225 4.77 1.54 7.194.691 5.338 0 5.916-4 7.438a19.9 19.9 0 0 0-5.618 3.195c-.087-.587.368-1.007.508-1.523.087-.324.236-.613-.272-.788-2.205-.726-6.3 1.225-6.983 3.466a1.05 1.05 0 0 0-.131.507c0 .175.035.36.113.517.07.157.184.297.324.402.14.114.306.184.473.219 1.846.604 3.281-.254 4.717-1.155l-1.156 1.794s-.026.052-.043.079a4 4 0 0 0-1.76.288 4.2 4.2 0 0 0-1.557 1.12c-.245.193-.42.456-.508.762-.087.297-.087.612.018.91.263.613.814.376 1.26.464L75.847 65.3c-1.226-4.323-1.54-8.48.866-12.47-.166 1.383.647 1.514 1.689 1.304a3.8 3.8 0 0 0 1.645-1.103c.446-.507.753-1.12.893-1.776.096-.64-.22-.578-.64-.578-1.04-.035-1.828.718-2.8.884 0-.009-.008-.009-.008-.009-.14-.691.35-1.137.586-1.671.998-2.153 2.074-4.288 2.074-6.73a9.35 9.35 0 0 0-2.258-3.518c-.542-.639-1.269-1.138-1.549-1.969-1.05-.7-1.706-1.794-2.555-2.695a.7.7 0 0 1-.263-.403.68.68 0 0 1 .062-.49c.936-1.995.603-4.034.14-6.073-.692-.884-.805-2.18-2.013-3.15.42 1.25.928 2.126.875 3.132a9 9 0 0 0-.945-1.172c-.709-.63-1.794-1.628-2.424-1.05-.788.752.009 1.968.595 2.826a1.85 1.85 0 0 0 1.286.963c.272.06.552.052.823-.01a2.1 2.1 0 0 0 .718-.358c.56.919-.01 1.715-.28 2.547-.272.831-.613.691-1.112.175a13.5 13.5 0 0 1-2.8-3.982c-.823-1.978-1.2-4-.193-6.047h.018c.192.577-.29 1.409.472 1.68.368.088.762.07 1.13-.052.367-.114.69-.342.936-.64.455-.437.796-.97.988-1.566a3.8 3.8 0 0 0 .15-1.855c-1.716.14-2.714 1.234-3.676 2.398a8.64 8.64 0 0 1 2.573-4.332c-.01.009-.01.018-.018.026.166 1.12 1.015 1.33 1.97 1.418 2.764.245 5.18-1.89 5.792-5.146-1.995-.236-2.24-.236-5.985 1.147q.002-.014.017-.027c-.569-.227.411-.656-.149-.91-1.321 1.558-2.66 3.116-3.973 4.708a8.46 8.46 0 0 0-1.969 5.006c-.026 2.214.298 4.42.954 6.537l-.044.035s.018.009.027.009l-.018.017-.017-.017c-.053.07-.097.122-.123.184-.192.105-.367-.07-.507-.201-1.908-1.856-4.271-1.987-6.739-1.724-1.006.087-1.418.393-.726 1.391a9 9 0 0 0 2.398 2.67c.647.428.656.795.2 1.382a8.2 8.2 0 0 0-1.382 3.001c-.481 1.943.044 3.781 1.278 4.586l.157-2.372h.228v2.635c.823.087.928-1.06 1.724-.77-.061-.062-.184-.175-.184-.175 1.645-2.565.954-4.954-.744-7.483a6.7 6.7 0 0 0 4.14-.271c.743-.271.498-.648.332-1.077-.026-.008-.044 0-.079-.017-.017.009-.026.017-.043.026a.33.33 0 0 0-.158-.201c-.07-.035-.157-.044-.236-.035 0-.009.008-.026.008-.026a.4.4 0 0 1 .263.035c.079.044.14.113.166.201l.018-.009s.026-.017.035-.026c0 .018.017.035.026.053.639.157.114-.64.481-.71l-.183-.2c-.123-.263.07-.666-.315-.85h.008c.394.158.193.56.324.84l.184.202a25 25 0 0 0 3.133 4.06c.157.167.516.333.201.692 1.225.464 1.864 1.531 2.538 2.546l-.052.035c.236-.07.34-.035.332.123-.017-.105-.114-.14-.315-.079l.044-.026c-1.313-.131-2.46-.989-3.842-.823-1.085.123-2.6-.184-3.037.762-.315.682.902 1.689 1.69 2.328.673.542.49.857-.115 1.277a7.4 7.4 0 0 0-2.205 2.442 5.05 5.05 0 0 0-.726 2.258c-.07.805.061 1.61.359 2.345.183.464.822.306 1.19.184a4.3 4.3 0 0 0 2.048-1.278 4.4 4.4 0 0 0 1.059-2.188 12 12 0 0 0 .096-2.021 8.5 8.5 0 0 0-.114-1.155c-.061-.42-.018-.797.499-.543.516.254 1.418-.21 1.575.613a3.48 3.48 0 0 0 2.967 2.432c1.391.132 1.934-.63 1.96-1.872-.35.42-.543-.08-.726-.22a4.95 4.95 0 0 0-3.238-.69c.463-.657 1.479-.42 1.697-1.226.027-.105-.297-.306-.525-.472-.026 0-.052.008-.087 0l-.026-.027v-.035s.035.01.043.01c.018.017.053.034.07.052.43.035.63-.254.805-.604-.2.026-.306-.009-.35-.105.053.07.15.105.324.079l-.289-.42s-.017-.035-.017-.053l.297.429a6.6 6.6 0 0 1 2.03 3.203l.01.017h-.018v.062a.1.1 0 0 1 .026-.035c.306.472.455 1.032.438 1.592a2.8 2.8 0 0 1-.587 1.593 27 27 0 0 1-2.065 2.774 12.4 12.4 0 0 0-3.019 8.252 37 37 0 0 1-.875 7.465 15.2 15.2 0 0 1-2.31-2.713c-.01-.017-.027-.035-.035-.052-2.075-1.97-2.766-4.524-3.203-7.22a.4.4 0 0 1 .052-.28.38.38 0 0 1 .228-.175 1.65 1.65 0 0 1-.342-.962c0-.342.097-.683.298-.972-.735-.691-.446-1.584-.516-2.398-.193-2.074-.307-4.21-1.33-6.134l-.324-.5a5.4 5.4 0 0 0-2.363-1.452c-1.278-.481-2.643-.691-3.833-1.383-1.112-.052-2.066-.656-3.133-.918-.289-.07-.578-.193-.604-.526-.21-2.432-1.733-4.156-3.238-5.828-.945-.105-1.461-1.172-2.53-1.181.228.665.963.796 1.165 1.374h-.009s0 .009-.009.017c-.971.009-1.942.009-2.905.053-.306.026-.831.096-.613.551.202.473.5.893.876 1.243a3.5 3.5 0 0 0 1.303.752c.902.263 1.9.43 2.538-.621.044-.271 0-.49-.096-.683.114.202.175.447.122.744 1.48.49.98 1.715 1.12 2.914-3.605-.98-6.834-2.179-8.138-6.038a1.1 1.1 0 0 1-.324-.534v-.026c.053.193.158.368.298.508 1.671-.342 2.546-1.313 2.546-2.634 0-.78-.306-1.69-.945-2.67a5.2 5.2 0 0 0-1.409 1.864 5.3 5.3 0 0 0-.481 2.267h-.017v.017c-.57-1.085-.298-2.249-.22-3.369.044-.726-.358-1.61.473-2.179-.035.569.368.377.665.359v-.035l.035-.061s.01.043.01.061v.026s-.036 0-.045.009c-.13.954.534.499.867.402 2.616-.708 3.929-3.325 3.448-6.66-.15-1.023-.482-.988-1.287-.56-1.794.928-2.774 2.53-3.859 4.088-.105-.508.123-1.077-.324-1.698-.437 4.253-2.38 8.287-.236 12.47 0 .018.017.027.026.044h-.017s-.018-.017-.035-.017l.026-.027h-.053s-.008.044-.017.07q.015-.012.017-.026c-.052.166-.052.289-.017.394-.044-.096-.053-.21 0-.368-.123.114-.254.044-.376-.07-3.133-2.87-6.739-2.634-10.476-1.61-.884.254-.989.569-.385 1.295.604.727 1.19 1.488 1.978 2.486 0 0-.009.008-.009.017h-.008c-1.374-.411-2.45-.718-3.518-1.059-.78-.245-1.016-.07-.92.788a10.3 10.3 0 0 0 2.451 5.924h.009l-.219.254.35.28-.385-.28c-.971-.402-.875.368-.91.902-.193 3.001.726 5.46 3.448 7.027H29.49c1.47.612 2.757.332 3.693 1.129a4.9 4.9 0 0 0-3.378 1.347c-.227.22-.63.464-.122.762.49.323 1.032.525 1.61.604a3.9 3.9 0 0 0 1.707-.15 1.8 1.8 0 0 0 1.067-.682 1.8 1.8 0 0 0 .35-1.225c.525.009 1.042.21 1.435.56.394.359.64.849.7 1.383.07.63-1.18.586-1.89.752-.13.053-.271.088-.411.123-2.757.262-5.513.297-7.657-1.97 1.102-.227 1.426-1.023 1.4-2.02-.035-1.655-1.12-2.512-2.38-3.239-.805 1.41-.202 2.748-.202 4.061-1.19-1.225-1.636-2.862-2.345-4.358a7.6 7.6 0 0 1-.919-1.96c-.245-.07-.367-.482-.691-.28 1.295 3.798 2.074 7.902 6.003 10.125h-.052s.008.017.008.035a13.1 13.1 0 0 0-6.528.297 8.36 8.36 0 0 0 2.197-3.544l-4.035.648c1.103-.78 2.442-.718 3.72-1.2-3.982-2.222-9.706-.62-12.139 3.23-.332.534-.07.665.29.84 1.172.551 2.406.971 3.675 1.251 1.435.377 2.87 0 4.586 0-.972.902-1.76 1.654-2.38 2.215-.631.56-.745.962.218 1.382 1.409.63 2.905 1.05 4.437 1.234a6.9 6.9 0 0 0 4.612-1.103 6.9 6.9 0 0 0 2.817-3.833l-4.961.876a10.1 10.1 0 0 1 3.841-1.156c.998-.078.403-.49.245-.822-.2.026-.437.087-.525-.105.105.131.315.07.508.061a.2.2 0 0 1 .017.044h.044l-.044-.044h.01a.45.45 0 0 0-.088-.184c.043.026.078.088.105.166.315.08.621.184.927.298a14.5 14.5 0 0 0 9.312.77 194 194 0 0 1 6.747-1.488c4.21-.866 6.064-.2 7.228 2.967 1.33 3.623 3.116 6.809 6.529 8.821 2.179 1.05 3.946 2.66 5.872 4.27a13 13 0 0 1-3.22.692c-1.891.385-3.781.63-5.663-.043a27.6 27.6 0 0 1-5.854-2.556l-2.24-1.05a35 35 0 0 0-4.945-1.505l-.814.227c-1.75.945-3.045 2.494-4.647 3.64a4.05 4.05 0 0 0-.647-2.72l.183-.193c-.122-.053-.323-.105-.367-.053-.018.026-.018.044-.026.061q-.016-.038.035-.105c.043-.052.245.053.367.053.28.044.551.149.831.149 2.565.324 2.827 0 2.145-2.442-.053-.184-.08-.341.06-.472l2.066 2.074.814-.22c.788-1.207.438-2.58-.989-3.5-.569-.376-1.313-.971-1.952-.604-.63.36.062 1.112.062 1.698v.499c-1.155-.831-2.074-2.056-3.606-2.249-.936-.114-1.934-.149-3.001-.219a6.35 6.35 0 0 0 1.732-3.702c.088-1.024-.446-.63-.875-.533-.009.017-.009.026-.017.035-.009-.01-.018-.01-.026-.01-.01.018-.018.027-.027.045-.254-.105-.42-.01-.516.227h-.018s0 .009-.008.018h-.018s-.017.052-.017.078a1.3 1.3 0 0 0-.525.245 1.3 1.3 0 0 0-.315.394c-.027.018-.053.027-.07.044.078-.201.21-.368.376-.508.157-.122.35-.21.551-.253 0-.01.009-.018.009-.027.009.01.009 0 .017.01.105-.263.272-.395.56-.272l.01-.018s.017 0 .034-.008c.28-.552.131-.744-.542-.744-2.696.026-6.03 3.141-6.345 5.916-.07.638.298.603.683.603a9.1 9.1 0 0 0 4.06-.822c.552-.28.814-.263 1.068.376a9.6 9.6 0 0 0 2.363 3.255c.113.114.227.237.341.36-.017 0-.035.017-.053.026-.096-.114-.192-.21-.288-.316l-.175.202-.035-.035c-.22-.026-.455-.088-.683-.088-.411-.017-.919-.297-1.199.07-.271.377.14.832.228 1.2.087.367.603.63.297 1.102 1.094.551 2.066 1.505 3.43 1.391-.91.84-1.82 1.698-2.756 2.53-.236.2-.446.586-.849.376-2.144-1.13-4.35-.587-6.537-.158-.018.009-.026.018-.035.026h-.009a7.4 7.4 0 0 1-2.809 1.444c-.262-1.82-1.89-2.564-3.807-1.802-.665.297-.7.498-.218.989 1.137 1.146 2.502 1.295 3.99 1.015 1.112.175 2.065-.43 3.02-.762-.184.464-.56.797-.92 1.138-.367.341-.717.7-.857 1.208-.131.446-.692.84-.333 1.33.36.49.998.149 1.462.052 2.004-.42 3.001-2.24 2.074-3.728a4.4 4.4 0 0 1 2.249.324c.84.341 1.041.691.254 1.383a14.7 14.7 0 0 1-3.37 2.494c-2.319 1.085-4.681 1.549-7.07.166h-.01c-.157.018-.314.035-.42-.044.106.07.263.062.43.035.28-.148.542 0 .787.08.455.148.954.376 1.339-.08.376-.446.149-.927 0-1.382-.481-1.444-1.663-1.89-2.975-2.136-.867-.157-1.06.184-.797.998.254.823 1.208 1.287 1.033 2.275l.017-.026v.035s-.008-.009-.017-.009c-1.523-.577-2.713-1.654-3.965-2.634-.008 0-.017 0-.026-.008.324-.316 1.155 1.04 1.147-.333-.01 0-.01-.009-.018-.009v-.026h.018v.035c.63.551.875.245 1.059-.438.612-2.467-.683-4.69-3.58-6.082-1.522-.735-1.575-.682-1.575.954a8.5 8.5 0 0 0 1.006 3.895c.105.21.49.428.254.726l-.052.035c-.018.017-.027.017-.044.035v.035s.009 0 .018-.018c0 0 0 .01.008.01v.017c-.28 0-.569-.184-.822 0 1.295 1.128 2.581 2.284 3.894 3.386 1.321 1.112 2.555 2.083 4.236 2.372a14.06 14.06 0 0 0 6.633-.306 14.2 14.2 0 0 0 5.776-3.317c.402-.368.647-1.111 1.435-.901a3.8 3.8 0 0 1 .901-1.34 3.8 3.8 0 0 1 1.366-.848 2.28 2.28 0 0 1-.184 1.4 8.44 8.44 0 0 0 .052 4.568c.062.333.114.928.692.551 1.531-.971 2.87-2.117 3.343-3.999.148-.63-.674-1.811 1.085-1.479.84.166 1.995-2.021 1.995-3.089 0-1.427-.91-1.68-2.013-1.75.403.262.201.463.018.621-.018.017-.044.035-.062.061a.6.6 0 0 0-.105.105c-.017.035-.035.062-.052.097v-.027c-.639.928-.656 2.022-.656 3.203-.473-.647-.526-1.365-1.13-1.829-.603.525-.568 1.4-1.023 1.952-.018-.009-.018-.018-.026-.035l-.044-.56c.236-.525.945-1.094-.088-1.55 0 .01-.009.018-.009.027v-.017h.01a6.17 6.17 0 0 1 3.14-2.03c.01-.01.018-.01.018-.018h.01c1.137-.805 2.266-.552 3.307.157 1.059.7 2.074 1.54 3.142 2.328a11.42 11.42 0 0 0 6.974 2.66c2.46.062 4.919.29 7.343.7.429.01 1.4.29 1.706.587.298.306.604.936.622 1.365.078.438.078 3.763.078 5.478a.91.91 0 0 0 .998.91 69 69 0 0 1 5.715-.236c1.925 0 3.876.079 5.767.245a.92.92 0 0 0 .997-.919c0-2.791-.026-4.76 0-5.53 0-.29 0-.613.394-.692 2.984-.376 5.872-1.505 8.926-1.216h-.017s.017.008.026.008 0-.008.017-.008a9.5 9.5 0 0 1 5.313 1.802c.21.368.796.106.962.57a2.5 2.5 0 0 1 1.62.472c2.187 1.068 4.392 2.135 6.851 2.45 0 0 0 .009-.008.009a3.3 3.3 0 0 0-.158 1.418c.053.481.21.945.473 1.356.253.403.595.753 1.006 1.007a3.2 3.2 0 0 0 1.339.463c.718.15.691-.201.639-.691-.079-.613-.482-1.181-.254-2.127 1.523 2.556 3.719 3.037 6.205 2.958.875-.035 1.137-.236.691-1.085a9.8 9.8 0 0 0-2.503-3.273q.407-.094.84-.07c1.357.272 1.812-.122 1.12-1.453-.035-.06.044-.174.044-.27-.017-.01-.026-.018-.044-.027l.018-.017.044.034c.017-.034.017-.06.026-.087.289-.21.437.123.595.245 1.505 1.173 3.238 1.356 5.058 1.251.639-.043.875-.2.569-.9-.849-1.839-1.995-3.449-3.938-4.219-.884-.341-1.873-.744-2.835-.044-1.077.788-.062 1.628-.062 2.442v.122l-.008.018-.044-.035.035.035s.009.009.017.009a.9.9 0 0 0-.131.297 1 1 0 0 1 .114-.306c-.438.429-.63-.096-.884-.254a2.6 2.6 0 0 0-1.138-.49 2.5 2.5 0 0 0-1.216.096c.446-1.05 1.593-1.426 2.249-2.266s1.374-.867 2.38-.543c2.879.901 5.435 0 8.113-1.741-1.016-.114-1.558.56-2.241.297v-.035s0-.009.009-.017h-.017c.096-.56.717-.71.945-1.173.358-.718 1.181-1.602.691-2.153-.49-.56-1.54.009-2.267.359-1.549.77-2.012 2.267-1.102 3.466.166.043.341.043.516.008a1.2 1.2 0 0 0 .464-.227c.035-.01.07-.01.105-.01.061 0 .122 0 .192.018-.105 0-.21-.017-.306.01a1.13 1.13 0 0 1-.98.21 4.9 4.9 0 0 1-2.652-.5c-.56-.262-.691-.542-.183-1.041 1.54-1.488 3.168-2.835 5.294-3.352 1.619-.402 3.256-.647 4.813.28h.009c1.759.324 3.072 1.392 4.314 2.6l2.066 1.522c.481-.227.857.429 1.435.158-1.672-1.444-3.299-2.862-4.962-4.227h-.018Zm-14.728-19.524.026.035s.027.07.035.105c-.017-.035-.035-.079-.061-.123-.219.035-.35.123-.411.237.052-.132.184-.22.411-.254m-38.82-10.047c-.175-.105-.324-.218-.324-.472-.114 0-.236 0-.297-.061.06.052.183.052.297.052.009-.008.009-.017.009-.035.008-.008.008-.017.008-.026.175 0 .35.035.377.166-.061-.087-.228-.114-.385-.14-.026.228.114.341.28.447h.008s.027.017.035.017a.1.1 0 0 0 .018-.035c.201-.079.341-.018.42.157-.087-.14-.236-.175-.446-.07M44.053 25.3c.15-.324.412-.57.736-.692l.026-.044v.027s-.018.008-.026.017l-.018.035c-.298.131-.56.35-.7.648a1 1 0 0 0-.061.149.3.3 0 0 1 .043-.14m19.892 41.025c-1.873-.621-3.65-1.383-4.953-2.966a30 30 0 0 1-3.755-5.146l-1.26-1.847c-1.155-1.286-2.074-2.774-3.71-3.579-.079-.044-.158-.079-.237-.114-2.152-.691-4.139.29-6.204.552a9 9 0 0 0-2.24.498c-1.724.692-2.88.053-3.737-1.444a27 27 0 0 0-4.087-1.829.3.3 0 0 1-.079-.017.2.2 0 0 0 .079.009c1.531-.98 1.724-3.684.394-5.426-.377-.499-.805-.963-1.234-1.47 1.164-.123 2.45.612 3.92 0l-2.424-2.687c1.217.298 1.62 1.514 2.6 2.083.157-2.109-.902-3.605-2.066-4.988-.009 0-.017 0-.026.009v-.035l-.193-.132h.027l.166.097v.035h.017s.01.017.01.026c.515-.219.874.201 1.285.367 2.652.998 4.936.28 7.185-1.391-1.61-.84-3.255-1.129-4.927-1.82 1.724-.01 3.168.656 4.665 1.111.288-.376-.272-.612-.096-.936h.017a.87.87 0 0 0-.131-.534s0 .009.017.017c.096.158.149.35.131.543a31.6 31.6 0 0 0 4.621 4.62c-.14.01-.297.053-.394 0-3.176-1.68-5.82-.446-8.348 1.506-.805.612-.508.91.183 1.304a9.3 9.3 0 0 0 3.641 1.225c.612.052.875.227.796.858-.114 1.39 0 2.791.342 4.139-.01 0-.018-.009-.027-.009 0 0 0 .035-.008.044-.762-.114-1.042-1.06-1.9-1.094a3.9 3.9 0 0 0-.367 2.135c.079.735.359 1.435.805 2.022.289.359.517.814 1.173.691.647-.122.656-.753.814-1.225.227-.674-.202-1.252-.228-1.925a.4.4 0 0 1-.131-.053.7.7 0 0 1-.131-.149v-.035a.4.4 0 0 0 .105.132c.035.026.087.035.13.052l.027.026v.027s.026.017.044.017a9.3 9.3 0 0 0 2.126 1.97c.902.463 1.54.35 1.864-.692a4.65 4.65 0 0 0 .193-2.346 4.6 4.6 0 0 0-.971-2.144c-.797-1.05-1.97-1.583-3.063-2.432 1.689-.595 2.905-1.462 3.596-3.037-.673-.271-1.321.14-1.89-.193.403-.56 1.514.35 1.628-.796.009 0 .017.009.026.018 3.448 1.697 7.237 2.415 10.782 3.824 1.339.534 2.686 1.033 3.631 2.24-1.724-.481-3.386-.481-4.9.849.411-.726 1.19-1.129 1.19-2.039a12.2 12.2 0 0 0-3.142.262l2.897-.892c-2.74-1.952-6.17-.079-7.946 1.846-.482.526.043.665.35.814 1.776.85 3.605 1.348 5.557.57.245-.097.411-.403.814 0 1.925 1.89 4.585 1.137 5.207-1.384a.2.2 0 0 1 .043.053c1.13 1.041.893 2.363.692 3.65-.324 2.44-.78 4.847-.193 7.341a22 22 0 0 0 1.4 3.405l-.28.14a3.76 3.76 0 0 0-2.818-.735c-.726.183-1.855.105-1.925.875-.061.656.98 1.129 1.663 1.435 1.549.665 2.975.157 3.343-1.234 0-.009-.009-.018-.018-.026l.167-.096.026.06a34.7 34.7 0 0 1 2.826 6.485 14.2 14.2 0 0 1-3.176-1.093zm45.165 11.158c-.053.674.07 1.339.376 1.943.473.814-.026.735-.586.691-.692-.061-1.505-.656-2.057.315 0-.009.009-.009.018-.009v.027s-.018-.01-.035-.01c-1.383.456-.062 1.419-.473 2.329a12.3 12.3 0 0 0-2.31-1.952.35.35 0 0 0-.193-.061c.053-.018.123 0 .202.044 1.505-.158 2.362-1.322 3.448-2.153.516-.394.831-1.103 1.584-1.147 0-.008.008-.008.008-.017z"/><path d="M71.05 61.442c.272-.315.465-.691.578-1.085.105-.403.114-.823.035-1.234a9.5 9.5 0 0 1-.27-1.558c.14-2.091-.605-2.861-2.758-2.66.062.691.377 1.33.876 1.794a2.83 2.83 0 0 0 1.837.77c-2.047 1.199-2.835 2.81-2.476 4.944.411 0 .822-.07 1.199-.236a2.7 2.7 0 0 0 .98-.735Z"/><path fill-rule="evenodd" d="m16.592 74.403-.096.122.158.07c-.027-.06-.062-.122-.062-.192m65.38-17.818s-.026.088-.026.15h-.008c0-.062.008-.114.034-.15M65.214 31.26c-.044 0-.096 0-.14-.018l.026-.027h-.008l-.123-.043-.105-.062.236.097.123.035a.3.3 0 0 1-.123-.027l.114.044Zm.736.245h-.01v-.026h.027s.017.017.017.035c0-.01-.017-.018-.017-.018l-.018.009Zm.498.07-.464-.044-.009-.009.481.044zm6.047 8.575s-.026-.017-.044-.026c.044.018.088.044.14.053zm1.794.648a1.3 1.3 0 0 0-.184-.193 1 1 0 0 1 .219.202c-.018 0-.026-.009-.035-.009M49.48 34.243s-.027-.017-.036-.026a.4.4 0 0 0-.009-.254c.053.07.062.167.044.28Zm-6.196-8.331v.018c-.027-.044-.062-.088-.08-.132.027.035.053.07.08.114M17.24 75.383c-.017-.087-.044-.149-.114-.175.088.017.114.088.114.175m-.28-.201s.008.008.017.008v.027h-.017zm-.271-.569v.026h-.01l-.008-.009z" clip-rule="evenodd"/><path fill-rule="evenodd" d="M16.662 74.595h-.008c-.027-.06-.062-.122-.062-.192.027.07.053.131.07.192m-.464-.725s.01.034.018.052c0 .017.017.035.026.052.009-.026.026-.052.044-.087a.3.3 0 0 1-.044.105.1.1 0 0 1-.026-.07.05.05 0 0 1-.026-.044s.008 0 .008-.009Zm-1.102 1.084c-.149.088-.263.105-.368.07.097.026.22.009.368-.088zm5.041 3.509s0-.008.008-.008a.45.45 0 0 0 .14.245c-.07-.035-.113-.114-.148-.237m21.781-4.533v.088L41.901 74zm-2.354-1.803s-.017.044-.035.062a.2.2 0 0 0 .035-.114zm-6.108-35.45s-.009-.027-.009-.035a.1.1 0 0 1 .018.035c.008.06-.062.148-.105.218.035-.078.105-.148.096-.218m-.149-.202h.009s-.009 0-.009.009zm12.208 4.367v.157c-.035-.052-.035-.113-.035-.149h.035zm67.367 38.408v.018c-.062-.043-.132-.096-.193-.14.061.035.131.08.193.123Zm-5.443-4.086a.8.8 0 0 1 .201-.288.66.66 0 0 1 .297-.184c.035-.018.088 0 .123-.018a.3.3 0 0 0-.114.027c-.105.043-.21.105-.297.183a.8.8 0 0 0-.193.298.7.7 0 0 0-.044.306h-.017a.8.8 0 0 1 .044-.324m.28 5.907v-.017c-.018.008-.027 0-.035.008-.009-.017-.018-.026-.018-.035-.219-.052-.455-.078-.613-.2.158.122.394.14.604.183 0 0 .009 0 .009.017h.035s.009.018.018.027c.043 0 .078.008.122.008h-.114l-.008.01Zm.306.026s-.079-.026-.123-.026c.044 0 .079 0 .123.009.009 0 .026.017.026.026-.009 0-.017-.008-.026-.008Zm.254.202s.008-.009.017-.009l.009.017.009-.017h.008s-.008.017-.008.026h-.009l-.018-.008s0-.01-.008-.01Zm.017.175s.079.026.158.008v.018c-.097.026-.149.009-.158-.026m3.133-9.802c-.026-.052-.061-.096-.044-.149 0 .053.044.114.079.167-.017-.009-.026-.018-.035-.018M35.53 75.908h-.017s.017.018.026.018v-.018zm92.509-7.964c1.006.455 1.943 0 2.853-.315 2.914-1.015 5.959-5.373 6.056-8.462.017-.78-.473-.569-.858-.569-2.538.245-4.918.884-6.843 2.713-.219.201-.394.586-.876.359a16.2 16.2 0 0 0 1.156-3.492c.131-.63-.079-.788-.648-.744-2.643.245-5.154.875-7.071 2.862-1.654 1.724-2.135 3.833-1.785 6.283l1.488-.892v.06c-.027.044-.053.08-.079.123.017 0 .035-.017.052-.026 0 0-.008.018-.017.018a.1.1 0 0 0 .035-.018v-.017c.262-.088.507-.22.726-.394a2.3 2.3 0 0 0 .578-.71l-.114-.095s.017-.01.026-.01l.131.106a2.4 2.4 0 0 1-.577.709c-.228.183-.49.323-.77.411-.061.543-.814.516-.683 1.076 2.617.07 4.14-.726 6.896-3.728-.175 1.077-.245 2.004-.359 2.766-.113.761-.21 1.558.692 1.978zm-4.516-3.999c-.052 0-.087.017-.131.026.044 0 .079-.026.131-.026m-.315.061c-.262.114-.376.376-.507.63.105-.254.218-.516.507-.63M50.547 33.578l-.017-.035-.01.01.027.017z" clip-rule="evenodd"/><path fill-rule="evenodd" d="M51.5 33.832a4.8 4.8 0 0 0 1.515-1.426 5 5 0 0 0 .779-1.934c.21-1.366-.263-2.634-.692-3.93a8.8 8.8 0 0 0 2.932 1.61c1.383.36 2.004-.087 1.951-1.548-.087-2.354-1.374-4.043-3.238-5.374-.385-.27-.945-.376-1.12-1.015 2.066.718 2.67.228 2.757-1.942.087-2.18-2.197-5.076-4.27-5.479-.5-.105-.613.114-.613.508-.166 2.013-.061 3.964 1.164 5.706.28.393.892.595.796 1.435-1.68-1.103-1.418.184-1.47 1.111a11 11 0 0 0 .42 3.466l-.254.236s.018.026.026.035c0-.009-.017-.026-.026-.035-.7-.516-.805.236-1.024.551-1.741 2.45-2.135 5.024-.612 7.745.971-.665 0-1.951.813-2.59a11.3 11.3 0 0 0 .158 2.87h.009Zm1.016-8.007h.026zm55.553-1.164.008.009v-.009z" clip-rule="evenodd"/><path fill-rule="evenodd" d="M111.35 28.424c-.131 1.26.377 1.698 1.576 1.26a3.47 3.47 0 0 0 1.653-1.234 3.5 3.5 0 0 0 .683-1.96c.201-1.715.149-1.777-1.461-1.715-.053 0-.114-.088-.21-.158a11.7 11.7 0 0 0 2.231-3.684c.271-.753.158-.998-.691-1.042-3.509-.157-5.872 1.383-7.045 4.779 0 0-.009 0-.017-.01-.053 1.637.84 1.891 2.065 1.637.604-.131 1.199-.28 1.811-.429l.359.307.044-.018c-.009 0-.018.018-.035.018a5.5 5.5 0 0 0-.963 2.24zm1.208-2.556s-.018-.043-.035-.078c-.009-.01-.026-.018-.035-.027.009.01.035.018.044.027a.14.14 0 0 1 .026.07zm-11.21-3.106-1.059.586c-.228.315-.805.385-.665.972.726.113 1.47-.228 2.222.157l-2.721.394c.306.507.717.954 1.199 1.295.481.35 1.032.586 1.619.709 2.424.551 4.218-.84 6.125-2.223a9 9 0 0 0-3.159-1.628 8.9 8.9 0 0 0-3.561-.27zm-17.485 5.049c-.665-.262-.735.158-.735.648a10.3 10.3 0 0 0 .744 3.964c.105.306.533.779 0 .998-1.418.56-2.512 1.645-3.886 2.581q.473-2.31-1.549-1.881h-.044c0 .009.018.017.018.026-.998.971-1.987 1.952-2.04 3.483.99.551 1.882-.035 2.801-.306.324.779-.149 1.479-.078 2.17.06.604.227.849.796.473h.009s0-.01-.01-.018a.2.2 0 0 0 .088-.035.3.3 0 0 0 .08-.096.3.3 0 0 0 .025-.123.3.3 0 0 0-.026-.122c0-.053-.114-.053-.114-.053a.6.6 0 0 0-.113.21.6.6 0 0 1 .122-.227l.149.052s.026.08.026.123a.3.3 0 0 1-.026.122.27.27 0 0 1-.193.15c-.131.48-.455 1.023.56.848a5 5 0 0 0 2.888-1.672 5.06 5.06 0 0 0 1.2-3.124c.052-.682 0-1.374 0-2.345a6 6 0 0 0 3.56 1.908c.92.166 1.322-.324 1.436-1.112.088-.673 0-1.365-.254-1.995-.953-2.555-3.08-3.728-5.425-4.638l-.01-.009Zm21.414 11.429c-.525-.41-.665-.052-.858.28a9.6 9.6 0 0 0-1.382 3.947c-.035.35.113.858-.543.753-1.584-.271-3.107.184-4.656.359 0 0-.008.008-.008.017h-.018v.044l-.201.157s-.018-.017-.035-.017l.227-.175v-.026h.035c.42-.657 1.226-1.05 1.366-1.925-2.223-.98-3.895-.088-5.365 1.522a4 4 0 0 0 1.54.823 3.9 3.9 0 0 0 1.742.087 21 21 0 0 0-1.654 1.943c-.735 1.024-.315 1.55.639 1.864.91.341 1.907.385 2.844.123a4.6 4.6 0 0 0 2.371-1.593c.622-.7 1.112-1.514 1.733-2.372.639 1.602 1.427 2.967 3.203 3.615-.114-1.173-.201-2.18-.306-3.3.604.963.507 1.97.604 3.107 2.03-2.713 1.269-7.351-1.278-9.233M62.466 11.105v.018c-1.094-.315-2.214-.578-3.273-.98-1.348-.517-1.444.114-1.295 1.199a12.14 12.14 0 0 0 2.826 6.51c.158.114.35.21.464.35.07.088.21.14.29.22-.088-.062-.246-.097-.307-.176-.149-.113-.306-.236-.464-.35l-.289.254h-.017c-.875-.21-1.777-.402-2.634-.7-.858-.298-1.147-.079-1.024.823a16.2 16.2 0 0 0 1.041 4.209c1.322 3.037 3.833 4.673 6.896 4.533.324 0 .709.149.928-.219.21-.376-.21-.586-.403-.831a73 73 0 0 0-1.811-2.153c1.207.473 1.802 1.602 2.712 2.468a2.5 2.5 0 0 0 0-1.479c-.34-2.45-1.837-4.078-3.622-5.522l.113-.105c-.114-.114-.218-.21-.367-.079l-.035-.026c.157-.175.28-.061.394.061a14 14 0 0 0 3.281.482c1.164.017 1.077-.377.508-1.05l.201-.193-.254-.315-.192.192c.052-.07.131-.14.192-.192l-.262-.333a1.5 1.5 0 0 0-.35-.507 1.6 1.6 0 0 0-.525-.324l-.097.07v-.009l.08-.061c-.088-.341-.228-.613-.649-.508v-.008h-.008v-.027s0 .018.008.027c.42-.132.56.148.674.498a1.45 1.45 0 0 1 .875.823l.263.332.254.316.814.647a8.1 8.1 0 0 0-.937-3.903 8.04 8.04 0 0 0-2.686-2.966c-.438-.316-1.033-.43-1.296-.98a.6.6 0 0 0 .07-.088c-.034.017-.06.026-.096.052l.018.027zm-.936 7.369v-.009zm2.966-2.32v.044h-.131l-.044-.043h.175Zm-1.942-5.119c.402-.175.638.508 1.12.22v-2.89h.122c.149.91.307 1.812.473 2.836.84-.736.91-1.716 1.426-2.81-.289 2.932.359 5.041 2.757 6.529.84.525 1.155-.56 1.706-.088.158-.236.29-.49.385-.752.814-2.888-.542-5.04-2.52-6.931-1.54-1.48-1.558-1.435-2.153.604-.017.052-.122.078-.324.218a9.6 9.6 0 0 0-2.17-5.478c-.437-.569-.752-.814-1.225 0-1.584 2.652-2.337 5.802.332 8.314.114.096.114.175.07.245v-.018Zm7.035 2.495s-.026.035-.034.052c.008-.018.026-.035.034-.053Zm-.087.13s-.035.062-.035.097c0 .018.009.035.017.053 0-.018-.017-.036-.017-.053 0-.035.017-.061.035-.096Zm50.573 44.36 1.812-1.155v-.008.008c.105.762-1.05.7-1.05 1.462 3.43.052 6.957-3.23 7.167-6.59.052-.735-.341-.691-.797-.691a9.8 9.8 0 0 0-4.55 1.26c-.35.219-.508.298-.972-.07-2.354-1.829-4.953-2.862-7.876-1.138-.175.105-.245-.017-.323-.113-.062.691.402.691.883.691.587.044 1.234-.131 1.768.446h-3.045a5.04 5.04 0 0 0 2.66 2.206c1.847.647 3.527-.097 5.295-.85a7.08 7.08 0 0 0-.989 4.551l.017-.008Zm1.829-1.172c.009-.018.027-.026.035-.044.333.061.499-.087.525-.56 0 0 .018-.017.018-.026 0 .577-.201.726-.586.63zm4.043-13.941 1.033-.219a4.9 4.9 0 0 1 3.002-.27h-.044a5 5 0 0 0-2.967.27l.21.272c-.306.323-.884.105-1.129.691.552.446 1.12.866 1.715 1.252 3.457 1.942 9.145.13 10.939-3.466.324-.639-.175-.665-.455-.788a14.3 14.3 0 0 0-4.288-1.216c-3.203-.35-5.959.508-8.025 3.465l.009.01Zm-10.842 25.65c.105 0 .21-.026.306-.061 2.555-1.348 4.113-5.916 2.888-8.401-.228-.517-.552-.438-.919-.22a7.8 7.8 0 0 0-2.941 2.53c-.49.823-.892.761-1.549.227a6.4 6.4 0 0 0-2.756-1.277c-1.707-.35-3.361-.35-4.875 1.094l2.818.367a8 8 0 0 1-1.452.105c-.499.018-.998.062-1.471.062-.096.848 1.077.927.779 1.741-.892-.053-1.767-.411-2.678-.254l-.332.263c.035.499.184.989.446 1.409.263.428.621.779 1.059 1.032a3.03 3.03 0 0 0 2.862.105c.604-.245.569-.55.201-.945-.508-.551-1.033-1.076-1.549-1.619l.018-.017c.245-.411.49-.079.691.052a4.64 4.64 0 0 0 2.109.7 4.6 4.6 0 0 0 2.188-.367c.84-.315 1.645-.744 2.555-1.164-.332 1.68-.262 3.247.796 4.63.631-.438.534-1.252 1.138-1.61.184.62-.63.997-.341 1.618zM17.721 86.313c-.175-.341.026-.499.306-.621v.035c.035-.184.044-.394.324-.315-.079-.298-.105-.56.306-.613-.087-.359-.13-.691.307-.875.052-.77.149-1.54.149-2.31.035-1.41-.508-1.917-1.89-1.733a6.8 6.8 0 0 0-3.449 1.383 12.5 12.5 0 0 0-4.183 7.01c-.271 1.146.105 1.207 1.042 1.11a13.17 13.17 0 0 0 7.228-3.132l-.122.052zm-2.162-3.247v.035l-.017-.026v-.017s.009-.01.009-.018v.018zm-.034.035-.167.158c-.017-.053-.017-.096-.017-.123 0 .027 0 .062.017.114zh.027c-.018 0-.027 0-.035-.008zm.56-.595s0 .061-.018.088a.4.4 0 0 1-.061.096.2.2 0 0 1-.096.061c-.027.009-.053.009-.08.018v.017h-.051v-.017h.044v-.018c.026 0 .061 0 .088-.017.035-.018.07-.035.096-.061a.2.2 0 0 0 .061-.097c0-.017 0-.043.009-.07v-.026.017l.017.018h-.026l.018-.009Zm.332-.28s-.017.079-.035.105a.3.3 0 0 1-.07.088.2.2 0 0 1-.105.052.2.2 0 0 1-.105 0 .2.2 0 0 1-.026-.087c0 .026.009.052.035.087h.105a.3.3 0 0 0 .105-.052.2.2 0 0 0 .07-.088q.024-.052.035-.105a4.3 4.3 0 0 0 1.68-1.68 4.35 4.35 0 0 1-1.689 1.689z" clip-rule="evenodd"/><path fill-rule="evenodd" d="M19.008 83.933s-.009.009-.018.009c-.42.192-.385.534-.271.892.21-.262.761-.402.315-.884.044.018.096.027.131.035l-.07-.096-.078.035-.01.009Z" clip-rule="evenodd"/><path fill-rule="evenodd" d="M23.226 83.942c.56-1.146 1.549-1.882 2.537-2.774a7 7 0 0 0-3.054.402 7.1 7.1 0 0 0-2.59 1.672c-.28.254-.429.857-.963.744.333.42-.175.569-.367.813v-.035a.76.76 0 0 1-.306.621c-.044.176-.07.36-.316.316.053.28.044.516-.306.586-.315 1.155-.621 2.32-.963 3.466-.192.647-.035.927.657.849 2.319-.263 4.577-.762 6.45-2.302a6.4 6.4 0 0 0 2.117-3.098 6.5 6.5 0 0 0 .035-3.763l-2.914 2.494zm18.972-63.035c-.288-1.41-.534-2.617-.796-3.816.84 1.12.726 2.53 1.418 3.702a2.9 2.9 0 0 0 1.164-1.278c2.284-3.44.49-9.644-3.23-11.359-.665-.315-.63.254-.743.516a13 13 0 0 0-1.26 6.188 7.5 7.5 0 0 0 .97 3.456 7.4 7.4 0 0 0 2.477 2.6v-.01ZM17.45 43.047c.691.262 1.671.963 2.065.429.403-.534-.823-.963-1.076-1.62-.018-.043-.053-.087-.053-.14.07-.07.123-.148.175-.236.009 0 .018.018.026.027.237.288.5.569.77.822.36.245.552.945 1.094.692.403-.193.272-.788.272-1.217.245-4.472-4-8.812-8.34-8.54-.306.017-.49.043-.543.454-.393 3.142 2.547 8.104 5.61 9.32zm.192-2.223h.053zm.718.875c-.061-.07-.14-.14-.158-.175.035.044.105.114.158.175m.087-.289s-.035-.026-.052-.035c.017 0 .035.018.052.035m-.901-.953c.175.07.341.14.289.367h.017-.035c.044-.219-.105-.289-.262-.359v-.095c.017-.026.026 0-.018.096zM11.99 74.446c-1.427-.516-2.705-.77-3.738-1.61l4.078 1.138c-.84-2.783-2.336-4.621-4.926-5.356-2.328-.665-4.63-.21-6.896.586-.692.245-.578.57-.21 1.05a14.2 14.2 0 0 0 4.366 3.956 7.7 7.7 0 0 0 3.632 1.05 7.6 7.6 0 0 0 3.693-.814ZM74.298 8.76c-.202.998-.508 1.952-.753 2.923-.105.289-.376.7 0 .919.184.105.56-.018.805-.123a6.74 6.74 0 0 0 4.087-4.235c.779-2.53.35-4.962-.481-7.378-.263-.69-.57-.446-.954-.166a13.05 13.05 0 0 0-4.367 5.085 7.56 7.56 0 0 0-.709 3.36 7.7 7.7 0 0 0 .84 3.334c.508-1.321.648-2.678 1.532-3.71zm29.168 10.484c-.114.35-.202.692.122.884s.49-.219.692-.385c.49-.525 1.05-.98 1.671-1.348l.122.175-.017.018c-.63.884-1.724 1.348-2.205 2.476a7.25 7.25 0 0 0 4.052 0c2.949-.875 5.968-5.11 5.828-8.165-.026-.638-.394-.533-.788-.49a15.7 15.7 0 0 0-4.192 1.06 8.75 8.75 0 0 0-3.325 2.257 8.7 8.7 0 0 0-1.96 3.518m3.089-1.164v.053s-.035 0-.053-.009h-.008.035v-.052l.148-.08h.009l-.157.088zm-67.411 9.092c-2.354-2.03-5.084-2.38-8.016-1.829-1.024.184-2.582.184-2.827.99-.245.813.99 1.732 1.724 2.476 3.44 3.527 6.949 3.93 10.773 1.05l-5.05-1.785c1.768.026 3.203.726 4.919 1.164a5.6 5.6 0 0 0-1.523-2.083zM27.724 37.92c-.718-2.469-3.938-4.245-6.494-3.641-.568.113-.55.376-.376.814a8.9 8.9 0 0 0 2.372 3.579c.341.289.7.516.341 1.05a9.43 9.43 0 0 0-1.426 5.81 7.4 7.4 0 0 0 .919 1.961c1.085.709 1.846.324 2.52-.648a4.7 4.7 0 0 0 .866-2.205 4.7 4.7 0 0 0-.35-2.345c-.306-.779-.7-1.523-1.085-2.372.455.035.814.079 1.146.079 1.76.035 2.075-.376 1.576-2.083h-.01Zm63.726 7.368c-.402-2.31-1.89-3.737-3.955-4.612-.648-.272-1.392-.972-1.987-.5-.595.473-.306 1.488 0 2.18.7 1.514-.052 1.741-1.313 1.978-2.17.42-3.946 1.487-4.76 3.736-.166.464-.385.92.402.937 0 0 0-.009.01-.018l.017.018v.009h-.035c-.482.665 0 .77.516.83a4.6 4.6 0 0 0 2.406-.244 4.6 4.6 0 0 0 1.96-1.418c.823-.971 1.173-2.153 1.734-3.465.533 1.006 1.487 1.216 2.065 1.907l.017.018c-.367.061-.857-.184-.857.578a3.76 3.76 0 0 0 2.074 3.229c.472.175 1.024.534 1.479.035.455-.5.245-1.077 0-1.637-.517-1.216-1.724-1.584-2.704-2.231.603.043 1.277.078 1.82.131.534.044.63-.227.551-.665h-.009v-.026l-.017-.018v-.175h.017v.228c.85.21.622-.42.56-.806h.01ZM80.284 48.35c-.193.14-.35.315-.385.612.113-.053.218-.105.315-.175q-.145.107-.315.175c.035-.306.192-.481.393-.621zm9.678-3.475-.2-.07c.07-.087.104-.096.13-.096a.5.5 0 0 0-.105.096l.167.062h.035v.043l.026-.017v.035c-.009 0-.009-.009-.026-.009v.009c-.009 0-.018-.009-.035-.009v-.044zm.35.56v-.192l-.043-.035h.026c0-.009-.009-.018-.009-.027h.035v.027h-.017l.017.017v.026l.035.027v.149l-.035.017zm7.255 27.077c-.052.543-.017.788-.052 1.015-.28 1.768.647 2.118 2.065 1.654 2.336-.752 3.448-2.555 4.139-4.708.271-.814.762-1.881-.927-1.453-.595.15-.543-.393-.753-.647-.893-1.147-1.899-2.083-3.492-1.97-.437.027-.927.018-1.129.473-.21.456.132.832.36 1.19.664 1.025 1.758 1.2 3.22 1.383-1.357.473-2.066 1.287-3.002 2.03.052-.752.569-1.417.052-1.81-.516-.395-1.163.148-1.706.42-1.531.76-1.715 2.178-1.715 3.683 1.111.114 2.021-.376 2.94-1.26M7 59.806c-1.032-.403-2.467-1.322-3.167-.613s.061 2.197.411 3.282c1.06 3.229 3.43 5.006 6.389 4.848.271-.017.656-.017.779-.184.253-.359-.15-.612-.35-.84-.63-.744-1.287-1.435-1.935-2.118H9.11l-.018-.043v-.044l.018.079.017.017c1.296.236 1.707 1.69 2.81 2.284.035-2.975-1.75-5.408-4.954-6.65zm99.844 16.014h-.044c0 .01 0 .018-.009.027l.053-.026ZM79.767 12.41c.219 1.566.823 1.802 2.293 1.18.787-.34 1.225-1.216 2.135-1.32v.043l.026-.053h.01c-.202 1.13-.587 2.24-.08 3.405.28.647.604.787 1.208.42a3.44 3.44 0 0 0 1.435-1.497 3.46 3.46 0 0 0 .324-2.047c-.131-.823-.192-1.917-.822-2.215-.613-.28-.823.84-1.47 1.077a.87.87 0 0 1-.385.744c.07-.062.14-.132.192-.21a.96.96 0 0 0 .148-.517h.01c.017 0 .026-.017.034-.017v-.035l-.044.052v-.017h-.008c-.341-.394.087-.683.192-.998.482-1.312.71-2.704.692-4.113-.018-.429-.027-.717-.64-.63-3.176.455-5.74 3.737-5.25 6.739v.008Zm37.088 13.983c.245 1.086.674 1.217 1.575.937 2.529-.77 3.877-2.835 3.816-5.925a9.3 9.3 0 0 0-.246-2.144c-.131-.446-.21-.752-.752-.446-2.748 1.531-5.085 4.463-4.393 7.578M9.469 51.474c1.943.718 2.66.132 2.415-1.951-.306-2.512-1.899-4.034-3.92-5.233-.57-.333-1.287-.945-1.794-.648-.5.298-.15 1.164-.245 1.68-.018 3.177 1.225 5.304 3.535 6.144zm114.719-9.905c2.337-.928 4.516-4.42 4.323-6.879-.026-.359-.14-.516-.507-.516-2.844-.201-6.152 2.897-6.152 5.81-.018 1.97.499 2.32 2.328 1.585zm-98.95-13.714c.473-.464-.376-1.041.246-1.733.096.622.175 1.06.245 1.523 2.222-2.477 1.514-6.467-1.62-9.372-2.922 3.701-2.38 8.19 1.13 9.573zM88.991 11.85c.333-.692-.096-1.383.464-2.083v2.292c4.192-2.362 3.264-6.668 1.391-9.416-.367-.569-.621-.184-.875.123a9.14 9.14 0 0 0-2.223 4.655 5.12 5.12 0 0 0 1.243 4.428Zm15.122 3.053c.201-.577-.096-1.25.403-2.082v2.459c3.544-1.934 3.946-5.671 1.032-9.705-3.098 2.914-3.815 7.666-1.444 9.32zm-68.067 8.979a5.13 5.13 0 0 0 4.919 1.024c-.158-.578-.832-.683-.797-1.243l-.026-.017v-.018h.026v.035l.928.56c.035-.63-.07-1.26-.315-1.837a4.4 4.4 0 0 0-1.068-1.532c-1.496-1.54-3.395-2.109-5.46-2.415-.63-.096-.762.148-.63.752.402 1.777.997 3.448 2.415 4.691zm3.527-.814.017-.017v.026l-.017-.018v.01Zm.298.298h-.018l-.017-.018h.043v.035zm-.28-.315h-.044zm-.57-.49c.062.218.14.42.316.48-.184-.06-.263-.27-.324-.49h.009v.01ZM13.206 80.257a4.7 4.7 0 0 0 1.374-2.774l-2.617.648-.052-.184 2.599-.919a5.46 5.46 0 0 0-2.897-.621 5.55 5.55 0 0 0-2.8.971c-1.322.832-3.396 2.04-2.915 3.264.482 1.226 2.862 1.112 4.499.91a4.56 4.56 0 0 0 2.8-1.295zm16.425-56.734a4.8 4.8 0 0 0 3.151.92c.009-.718-.744-1.156-.726-1.873-.018-.01-.035-.027-.053-.035l-.079-.132s-.078-.043-.113-.07c.035.027.07.035.105.053 0 0 .078.052.113.07l.018.026v.088c.56.297.542 1.12 1.251 1.452a5.8 5.8 0 0 0-.218-3.045 5.8 5.8 0 0 0-1.742-2.503c-1.041-.98-2.6-2.529-3.553-1.899-1.05.735-.411 2.774 0 4.2a4.86 4.86 0 0 0 1.838 2.74zm1.847-1.898v.035l.026.052c0 .14.027.289.097.411a.6.6 0 0 0 .183.202.7.7 0 0 1-.183-.175.75.75 0 0 1-.123-.49l-.026-.035zm-.166 58.755c-.289-.376.28-.569.14-1.024-2.932 1.383-4.577 5.723-3.334 8.541.166.376.332.464.76.315 3.615-1.208 5.27-5.54 3.291-8.69-.507.061-.428.7-.848.858zm-.595.761.271-.332h.018l-.272.332c.07.026.175.079.21.088-.017.017-.148-.061-.227-.097v.01ZM9.582 58.204l-.997-1.628h-.053c.009-.017 0-.026.009-.043q.014.002.026.017l.018.026c.612-.087.56.814 1.129.814.665-3.456-3.116-5.977-5.837-6.668-.604-.175-.692.157-.692.691 0 1.76.543 3.474 1.567 4.91 1.19 1.487 2.756 2.004 4.83 1.881m-1.277-2.258.017.018c-.061.122-.07.236-.026.324a.39.39 0 0 1 .009-.342m-.438-.35.026.018c0 .061-.026.122 0 .157.08.105.167.219.28.21-.13.026-.227-.087-.306-.21v-.184zm14.107-23.042c1.147.15.954-.358.814-1.032 0 0-.009 0-.017-.009v-.017h-.035.052v.026c.797.542.622-.096.622-.543-.08-2.616-3.282-5.75-6.082-5.977-.49-.044-.543.131-.604.525a6.4 6.4 0 0 0 1.234 4.568 6.32 6.32 0 0 0 4.025 2.46zm.202-1.645q-.002-.012.008-.026c.01 0 .018.009.027.018v.017h-.045.018v.026h-.043c.008-.008.008-.026.008-.035zm-.298-.612s.053 0 .088-.018c0 .009-.01.018-.018.035 0 0-.009 0-.017-.009-.01.018 0 .027-.018.035l-.009-.008c-.008-.01-.017-.027-.035-.035-.07-.08-.14-.15-.2-.22-.01-.017-.027-.025-.036-.043h.026l-.043-.044h.07c0 .035 0 .062-.01.088.07.07.14.149.202.219m-.508-.595v.07l-.026-.027h-.009l.01-.017h-.027l-.018-.018h.062l.009-.008Zm-8.48 13.581c1.27-.42 1.48-.962.797-2.126-1.365-2.302-3.544-2.976-6.03-2.932H5.916c-.525 0-.648.263-.525.753.753 3.089 4.568 5.277 7.5 4.305Zm-.306-1.61.053.018.017.017c.464-.157.744.21 1.217.508-.464-.298-.753-.648-1.208-.508l-.009-.009-.043-.017c-.22-.517-.64-.534-1.2-.403h-.017c.57-.14.998-.122 1.217.403zm87.749-23.444c.306.971-.307 1.82-.202 2.879 2.031-1.348 2.809-3.71 2.171-6.476-.228-.98-.254-2.503-1.094-2.652-.84-.148-1.61 1.147-2.223 2.013-1.864 2.617-1.707 5.312.507 7.351.29-1.032.561-2.082.841-3.115m37.385 30.384c-2.748-2.039-6.502-3.22-9.39.735h3.701c-1.129.683-2.161.341-3.264.543 2.468 2.511 6.642 1.514 9.119-.394.516-.411.131-.648-.175-.884zm-122.666.324a4.72 4.72 0 0 0 3.098.297 4.77 4.77 0 0 0 2.617-1.689l-3.02-.788c.963-.35 1.9.324 2.915.228-.053-.149-.053-.263-.14-.324-1.873-2.266-6.704-2.87-8.892-1.137-.498.385-.183.647.062.936a8.7 8.7 0 0 0 3.351 2.477zm97.856 9.399a7.3 7.3 0 0 0 2.905-1.339c.289-.254.832-.367.289-.945-1.846-1.96-5.653-2.416-7.885-.945-.857.551-.857.997-.166 1.689.306.315 1.068.437.832 1.137.21-.166.367-.166.49-.078-.132-.08-.289-.053-.508.14 0-.018.009-.035.018-.062a.5.5 0 0 0-.079.062l.026.017c.21.447.508.455.893.298v-.018a7.2 7.2 0 0 0 3.168.044zM96.963 34.663l.018-.017v.044h-.026l.017.017c.026.298.245.411.508.525 2.817 1.155 6.318-.779 7.097-3.903.219-.866-.394-.648-.797-.691-3.036-.272-5.504.647-7.132 3.421l.306.622v-.035zm.219-.148-.053.035-.13-.035v-.053l.183.052Zm-2.739 4.927c-.718 1.277-.376 2.013 1.067 2.275 2.617.481 5.829-1.671 6.319-4.192.122-.656-.271-.656-.639-.656a8.8 8.8 0 0 0-4.927.84c-.262.131-.525.639-.91.332.026.044.018.08.026.114-.017-.061-.061-.122-.122-.21.035.035.061.07.096.096a1 1 0 0 0-.114-.174l-.017.035c-.236.13-.438.27-.315.586h.017c.105.437-.297.656-.472.962l-.01-.008Zm.936-1.208V38.2zm-16.776-4.769c1.182-1.514 1.365-3.256 1.252-5.094-.027-.56-.175-.778-.788-.638-2.18.533-4.542 3.343-4.673 5.609-.096 1.514.429 1.89 1.89 1.575.753-.157 1.251-.954 2.1-.796-.28-.333.08-.473.22-.656Zm20.828 46.994c-1.54-.71-2.231-.272-2.231 1.444 0 2.581 2.695 5.347 5.145 5.338.385 0 .604-.079.648-.551.236-2.18-1.549-5.33-3.562-6.24zm-11.534-3.615a2.7 2.7 0 0 0-.228 1.365c-.017 2.275 1.646 4.262 4.271 5.242.858.342.98.079.98-.691.044-3.22-1.067-5.697-4.183-6.984-.367.28-.656.648-.84 1.068M52.56 75.348c-2.25.656-4.595 4.14-4.27 6.318.052.359.192.481.542.481 2.756.105 5.557-2.669 5.513-5.443-.017-1.391-.481-1.741-1.785-1.356m-5.514-1.531c-2.144.542-4.419 3.421-4.55 5.714-.027.455.113.56.542.604 2.95.315 6.056-2.407 5.995-5.233-.026-.998-.788-1.4-1.987-1.085M31.102 67.62a6.7 6.7 0 0 0-3.195-.314c-.385.035-.918-.14-.796.638.368 2.302 3.798 5.067 6.065 4.849 1.015-.088 1.479-.604 1.155-1.646-.184-.595-.376-1.181-.569-1.776l.026.017a6.8 6.8 0 0 0-2.686-1.767Zm42.653-39.59c.237.15.508.254.788.29.28.034.569 0 .84-.088a4.84 4.84 0 0 0 3.658-3.72c.192-1.146.28-2.301.254-3.465.534 1.96 1.312 3.72 3.369 4.594.297-.778-.14-1.505.254-2.24l.262 2.03a2.2 2.2 0 0 0 .42-.393c2.153-3.457.385-7.142-1.724-9.522-.551-.612-.7.053-.91.359-1.059 1.558-1.382 3.36-1.654 5.172l-.026-.026v.017c-.403-.35-.779-.131-1.164.053-2.88 1.382-4.682 3.465-4.376 6.93l.01.01ZM46.89 17.45c.69 1.181 1.084 1.233 2.064.28 1.987-1.934 1.794-6.109-.27-7.876-.526-.438-.675-.027-.867.253a8.25 8.25 0 0 0-1.645 4.682c-.035.937.21 1.864.717 2.652v.009Zm13.02 59.22c-.594.323-1.155.743-1.723 1.12-.01.104-.035.21-.097.262.035-.061.044-.149.053-.228.017-.008.026-.017.044-.034v-.027l-.053.053h-.026c-.254-.245-.035-.534-.035-.788-.053-.473.262-1.085-.377-1.383-.638-.306-1.12.035-1.575.386a4.33 4.33 0 0 0-1.549 2.992c-.13.858.193.814.884.648.744-.193 1.243-.901 2.013-.963-.114-.183-.079-.297.017-.385-.07.088-.078.202.044.377h-.061c.009.017.017.026.026.043l.044-.035s.017-.008.026-.017a10.5 10.5 0 0 0-.901 4.48c.026.412-.096.884.63.797 2.748-.306 5.18-3.728 4.49-6.406-.272-1.059-.884-1.444-1.873-.893Zm-1.986 1.102c-.122.026-.105.201-.096.341h-.018c.01-.14-.017-.323.123-.341zm-.192.823c.13-.105.192-.254.122-.464h.035c.061.21 0 .359-.157.464m73.755-5.418-2.066-1.522c-1.067.306-1.408 1.111-1.478 2.109-.114 2.459 2.056 5.11 4.568 5.61.743.166.691-.254.691-.692a7.96 7.96 0 0 0-1.707-5.505zM55.273 39.494c3.211-2.415 3.308-6.073.41-8.856-2.65 2.774-2.878 6.93-.813 8.506.193-.709-.114-1.462.289-2.214.035.849.07 1.61.114 2.564m33.28 16.811c-.507 1.383-1.47 2.66-.997 4.244.271.946.49 2.284 1.479 2.416 1.313.183 1.995-1.042 2.424-2.214.796-2.144.21-4.175-.578-6.179-.796.56-1.724.928-2.319 1.733h-.008Zm31.662 18.29c-.402 0-1.05-.21-.962.622h.043c.315.429.814.577 1.252.805 0 .009.017.026.017.035.035.017.079.035.114.061h.018-.035l.35.114.288.105v.026l-.691-.227s-.035-.053-.044-.088c-.455-.236-.989-.376-1.304-.84h-.017c-1.024-.035-.551.691-.464 1.076.595 2.678 3.982 4.56 6.739 3.772.358-.122.568-.192.463-.691-.498-2.267-3.509-4.778-5.793-4.778zm-.017-29.972c-.105 3.307 3.833 5.329 7.631 3.946a8.1 8.1 0 0 0-1.969-2.958 8.1 8.1 0 0 0-3.046-1.82 4.6 4.6 0 0 0-1.82 0c.201.245-.893.184-.14.578.49.166.928.446 1.295.813h.035l-.017.018s.017.009.026.018v.008c0 .027.017.053.026.07-.009-.026-.026-.043-.026-.07q-.014-.002-.026-.017s-.018-.009-.027-.018c-.708.088-1.216-.691-1.951-.56zm2.389.892s-.061-.035-.096-.044c.035.01.07.027.096.035.079.053.122.035.114 0 .026.044 0 .088-.114.01Zm-.324-.149h-.009zM55.465 65.083a5.36 5.36 0 0 0-2.748-.368 5.44 5.44 0 0 0-2.564 1.059 14 14 0 0 0-2.547 2.53l2.24 1.05c.63 0 1.252.052 1.873-.018 2.25-.245 3.991-1.812 3.991-3.71-.429-.053-.796.393-1.234.148.21-.368.84-.166.989-.691m-1.61 1.041s-.035.009-.061.009c-.027 0-.044 0-.062-.009-.078-.035-.114-.07-.105-.096 0 .026.035.044.088.07.017 0 .035.009.061.009s.044 0 .061-.01a1 1 0 0 0 .15-.113.7.7 0 0 1-.132.14m41.139-4.559c2.372-1.313 3.492-5.995 1.96-8.008-.2-.254-.34-.21-.595-.114a5.3 5.3 0 0 0-1.969 1.453 5.4 5.4 0 0 0-1.12 2.188 5.4 5.4 0 0 0-.035 2.459 5.36 5.36 0 0 0 1.06 2.214l.795-1.881c.324.595-.332.997-.096 1.689m.377-2.302v.009zm.035-.175v.009zc-.01-.034-.027-.078-.035-.113a.4.4 0 0 0 .035.114M51.755 61.39c-1.777-1.252-3.912-1.094-6.091.42-.77.542-2.03 1.12-1.864 1.986.175.866 1.575.928 2.485 1.129 2.74.604 5.023-.665 5.706-3.08-.884-.21-1.689.332-2.555.236h.017c.648-.481 1.488-.446 2.293-.7zm-2.328.708-.184.123.105-.088z" clip-rule="evenodd"/><path fill-rule="evenodd" d="M86.27 48.114a4.73 4.73 0 0 0-2.573 2.004 4.68 4.68 0 0 0-.657 3.203c.228 1.252.893 1.523 1.97.832a4.91 4.91 0 0 0 2.126-4.07c.017-2.1-.053-2.231-.867-1.969Zm44.753-11.28c1.671-.752 2.301-2.188 2.713-4.27 0 0 .122-.412-.508-.43a4.35 4.35 0 0 0-2.546 1.068 4.3 4.3 0 0 0-1.383 2.398c-.14 1.34.472 1.785 1.724 1.234M81.491 6.266c.936-.219.753-1.208.936-1.899A5.82 5.82 0 0 0 80.485.551c-.307-.297-.517-.315-.788.07a4.47 4.47 0 0 0 .087 4.542c.438.57.963 1.287 1.707 1.103m-29.229 5.102c1.637-1.208 1.89-3.16.578-5.723-1.97 1.566-2.8 3.474-2.258 5.119.306.919.761 1.295 1.68.604m5.968-3.273c.42-.28.762-.656.99-1.103s.35-.945.34-1.444c0-.883-.183-1.767-.533-2.581-.149-.35-.272-.56-.735-.254a5.3 5.3 0 0 0-1.558 2.135 5.3 5.3 0 0 0-.333 2.626c.28 1.146.858 1.312 1.82.621h.01Zm57.61 10.379c.122.122.28.192.446.21a.73.73 0 0 0 .473-.15c.997-.647 1.155-1.714 1.251-2.817-.131-1.12-.236-2.827-1.19-2.967-.963-.14-1.575 1.48-1.847 2.634a3.36 3.36 0 0 0 .035 1.663c.149.543.438 1.033.832 1.435zm14.395 34.086c-.63.428-1.347.971-1.094 1.811.254.849 1.164.657 1.742.849a4.7 4.7 0 0 0 2.249-.718 4.7 4.7 0 0 0 1.61-1.732c.219-.5.018-.613-.359-.692-1.417-.315-2.844-.367-4.139.482zM69.677 5.724a3.4 3.4 0 0 0 1.216-1.34 3.4 3.4 0 0 0 .333-1.785c0-.761-.175-1.505-.499-2.196-.149-.341-.297-.552-.744-.271-1.374.875-2.319 3.5-1.776 5.031.28.823.682 1.077 1.479.56h-.009Zm53.934 24.346a.8.8 0 0 0 .21.2.6.6 0 0 0 .271.097q.145.013.289-.027a.7.7 0 0 0 .254-.14c.936-.682 1.129-1.741 1.207-2.922-.201-1.016-.131-2.713-1.216-2.87-.884-.123-1.488 1.47-1.785 2.546a3.34 3.34 0 0 0-.018 1.662c.131.543.403 1.05.788 1.462v-.009ZM94.933 11.455c.306.429.718.779 1.19 1.015a.73.73 0 0 0 .56.035.73.73 0 0 0 .43-.359 3 3 0 0 0 .463-1.356 3.04 3.04 0 0 0-.236-1.418 4.2 4.2 0 0 0-.342-.787c-.48-.832-1.12-2.1-1.864-1.908-.743.192-.822 1.601-.822 2.581 0 .245 0 .49.035.736.079.525.28 1.023.586 1.452zm16.409 48.578c-.263-.813-1.313-.883-1.602-1.68-.385.158-.709.149-.893-.297-.883-.018-1.724.446-2.616.253 0-.008 0-.017-.009-.035-.017 0-.026.018-.044.018h-.017.009c-.298.096-.193.446-.35.621.122.009.227 0 .306-.017a1.1 1.1 0 0 1-.315.035c2.188 2.301 3.238 2.494 5.539 1.085zm-5.024-1.356s.018-.044.009-.079c0 .035-.009.053-.009.079m-.017.123s-.035.017-.053.035a.2.2 0 0 0 .053-.035M26.779 33.622c.971.316 1.251-.113 1.207-.962-.078-1.558-1.155-2.38-2.345-3.072-.779-.464-1.173-.332-1.068.552 0 1.811.858 3.036 2.206 3.474zm37.184 7.482c-.035.901-.36 1.785-.193 2.687l.333.507c2.476-.945 3.211-2.721 2.091-5.11-1.006.332-1.409 1.373-2.223 1.916zm-6.45-.262.017.044c.324.035.648 0 .954-.105a2.35 2.35 0 0 0 .832-.49 2.37 2.37 0 0 0 .76-1.733c.115-.998.018-2.398-.892-2.643-.761-.219-1.242 1.111-1.592 1.943a3.85 3.85 0 0 0-.08 2.135c.07.271.526.595 0 .849Zm-22.28 35.626c-1.19 1.024-1.392 2.345-1.252 3.798.026.315 0 .901.473.691a3.74 3.74 0 0 0 1.47-.989c.402-.446.691-.98.84-1.566.271-1.164-.026-2.048-1.217-2.468.097.289-.13.394-.306.534zm89.892-7.394c-.578.13-1.392-.298-1.689.437a2.06 2.06 0 0 0 0 1.085 2 2 0 0 0 .56.928 4.13 4.13 0 0 0 2.818 1.304c.665.096.709-.219.569-.761-.351-1.313-1.313-2.136-2.258-2.985zm-110.668-7.15c.893-.245.963-.692.534-1.383-.744-1.199-1.943-1.496-3.107-1.601-1.12-.035-1.348.105-1.277.647.236 1.488 2.327 2.73 3.841 2.345zm70.368 14.772c-.752-.184-1.234.043-1.172.849-.053 1.6 1.654 3.369 3.115 3.36.324 0 .403-.131.446-.394.237-1.234-1.181-3.51-2.389-3.815m32.774-32.608s-.088-.035-.132-.044a2.9 2.9 0 0 0-2.756.193.62.62 0 0 0-.193.901c.289.447.7.814 1.173 1.06a3.03 3.03 0 0 0 1.54.332c.718-.096 1.969-.053 2.144-.849.184-.796-1.085-1.146-1.776-1.584zm-81.92-26.927c1.251 0 .971-1.295 1.251-2.083-.21-1.12-.376-2.266-1.321-2.949-.385-.271-1.436 1.89-1.313 2.95.096.945.359 2.082 1.383 2.082M83.88 59.684c-1.627 1.312-2.319 3.141-3.01 5.005.42.35.656.945 1.356 1.085.123-.98.245-1.916.368-2.861h.131v2.87c1.768-1.978 1.794-3.982 1.155-6.1Zm-44.876-2.547c-1.199.175-2.879 1.758-3.045 2.949-.14.7.367.542.691.542 1.47.035 2.547-.77 3.535-1.724.088.56-.28.99-.437 1.47-.508 1.523-.473 1.62 1.041 1.427 2.442-.289 4.507-1.217 5.199-3.86.708.36-.814 1.48.638 1.48a3.5 3.5 0 0 0 1.9-.596 3.6 3.6 0 0 0 1.295-1.522c.183-.49.446-1.05-.053-1.453a1.45 1.45 0 0 0-.752-.219c-.263 0-.526.08-.753.22-.919.35-1.313 1.242-2.004 1.977-.499-2.345-1.147-2.608-3.212-1.645-1.277.586-1.873 1.837-2.844 2.695-.131-.753.42-1.943-1.181-1.733zm56.008 20.994c-.166-.455-.753-.192-.963-.569-.928-.14-1.173.35-1.164 1.182.123.761.481 1.47 1.024 2.013a3.68 3.68 0 0 0 2.004 1.04c.569.045.481-.323.481-.647a4.45 4.45 0 0 0-1.382-3.019M24.967 66.194c.42-.044.893-.096 1.112-.534.262-.577-.132-.918-.43-1.277a3.8 3.8 0 0 0-1.4-.945 3.9 3.9 0 0 0-1.662-.254c-.21.35-1.287-.551-1.024.647.289 1.33 2.03 2.486 3.404 2.355zm74.727-15.752a4.45 4.45 0 0 0-2.495-.761c-.883 0-1.758.262-2.494.761.044.368-.21.613-.376.901 2.258 1.497 3.737 1.27 5.373-.901zM58.52 69.205a1.64 1.64 0 0 0 .507-1.024 1.66 1.66 0 0 0-.271-1.112 4.74 4.74 0 0 0-2.302.43 4.9 4.9 0 0 0-1.829 1.47c-.42.568-.464 1.015.376 1.015h2.792c-.7.638-1.776.875-2.109 1.916 1.882.674 3.772.429 5.662.053.56-1.97.175-2.477-1.838-2.328q-.825.118-1.636.315c-.009-.429.437-.508.656-.744l-.009.009Zm1.338 1.61s.053 0 .088.009c-.026 0-.053 0-.088-.01h-.008.008Zm.587-.289s.017-.07.026-.096a.3.3 0 0 1 .21-.149h.017c-.043 0-.078.026-.113.053a.4.4 0 0 0-.088.096.2.2 0 0 0-.026.096zv.018zh-.018.026zm-.613.315s.009-.017.017-.026h-.017.017s0 .017-.008.026v.009c-.088.026-.236.009-.079.166v.018c-.21-.184.017-.15.096-.193zm-.7.394h.017v.061h-.017zm27.855-34.681c-.315-.018-.376.096-.455.367-.368 1.418.892 3.483 2.328 3.842.849.219 1.163-.149 1.163-.578.018-1.619-1.802-3.588-3.036-3.64zm-2.179 25.22a2.79 2.79 0 0 0 .438 2.774c.06.07.13.132.21.176.078.043.175.07.262.078.096 0 .184 0 .272-.026a.6.6 0 0 0 .236-.131c.857-.551 1.024-1.48 1.024-2.45-.105-.85-.08-2.18-.797-2.328-.875-.167-1.312 1.076-1.645 1.916zM80.739 43.73c.262.123.551.149.822.079a3.6 3.6 0 0 0 1.943-1.042 3.63 3.63 0 0 0 .98-1.977c.035-.674-.402-.56-.761-.482-1.68.333-3.142.972-3.562 2.88.131.236.324.437.569.55zm42.338 29.045c-1.103.245-1.234.682-.473 1.54.946 1.067 2.179 1.129 3.991.149-1.295-1.505-2.293-1.96-3.518-1.69ZM99.624 9.469a.8.8 0 0 0 .227.113.6.6 0 0 0 .254 0 .6.6 0 0 0 .227-.113.6.6 0 0 0 .149-.202c.219-.376.333-.805.333-1.242 0-.438-.114-.867-.333-1.243l-.052-.131c-.394-.543-.648-1.602-1.383-1.383-.639.184-.604 1.243-.639 1.934-.017.455.088.91.298 1.313.219.402.534.735.919.98zM55.229 12.9c.376.28.822.647 1.278.42.455-.228.455-.718.455-1.252 0-.464-.167-.91-.447-1.278-.499-.752-1.225-1.68-2.021-1.339-.797.342-.228 1.47-.044 2.223.105.481.385.919.779 1.216zM128.1 28.617a.48.48 0 0 0 .315.157.45.45 0 0 0 .333-.105c.796-.49.936-1.277.989-2.179-.132-.77-.053-2.004-.928-2.126-.639-.097-1.111 1.05-1.33 1.846-.114.42-.123.866 0 1.287.114.42.332.813.639 1.12zm-81.237 2.581c0 .49.498.534.883.534a.8.8 0 0 0 .552-.114.9.9 0 0 0 .358-.446 2.52 2.52 0 0 0-.359-2.678c-.358-.438-.726-1.181-1.286-1.033-.709.193-.394 1.068-.498 1.637-.245.744.34 1.382.34 2.1zM29.378 50.03c.709.263 1.251.14 1.251-.779 0-1.312-1.768-2.782-3.045-2.59-.403.07-.473.271-.368.595.377 1.217.902 2.302 2.162 2.774m44.254-29.509c-.63-.192-.988.797-1.382 1.383a1 1 0 0 0-.061.123c-.324.822-.543 1.671 0 2.459a.6.6 0 0 0 .648.298.54.54 0 0 0 .227-.106 2.56 2.56 0 0 0 .971-1.006c.228-.42.333-.893.306-1.365-.078-.613-.078-1.593-.709-1.785Zm41.735 27.812a.6.6 0 0 0-.105.228.6.6 0 0 0 0 .254.6.6 0 0 0 .114.227.54.54 0 0 0 .192.157c.455.272.989.394 1.514.35a2.6 2.6 0 0 0 1.436-.603c.455-.35 1.172-.85.98-1.383-.193-.543-1.007-.359-1.514-.438-1.085.07-2.057.237-2.617 1.217zM44.972 11.254a.6.6 0 0 0 .193.097c.07.017.149.026.219.008a.6.6 0 0 0 .201-.07 2.57 2.57 0 0 0 1.033-1.102c.227-.464.315-.99.236-1.497-.079-.481.035-1.479-.648-1.654-.577-.131-.962.788-1.312 1.348-.027.044-.053.079-.07.122-.385.867-.613 1.733 0 2.582a.6.6 0 0 0 .14.166zM97.025 30.07c-.22.752.017 1.242.927 1.154 1.217-.113 2.599-1.837 2.433-3.045-.052-.385-.236-.507-.586-.429-1.217.42-2.363.945-2.774 2.31zm-47.117-5.357c.823.044 1.059-.743 1.19-1.382.254-1.243-.324-2.223-1.277-3.238a4.5 4.5 0 0 0-.797 1.523 4.4 4.4 0 0 0-.14 1.715c.114.595.202 1.347 1.024 1.382M62.186 57.39c-1.838-2.415-4.787-2.782-8.235-1.093l1.26 1.846c3.107 2.04 5.023 2.04 7.133-.043a12.2 12.2 0 0 0-2.713-.823c.805-.359 1.636.376 2.546.114zm6.554-5.119c.123-.849.053-1.952-.498-2.232-.552-.28-1.12.692-1.584 1.234a2.83 2.83 0 0 0-.744 1.55c-.192.28-.289.62-.289.962s.123.674.324.945c1.593 0 2.53-.787 2.783-2.468zm-9.766 11.018c1.304 1.575 3.054 2.345 4.953 2.975.464-.306.84-.735 1.094-1.234-.997-.437-2.039-.236-3.072-.481l3.01-.158c-1.95-1.785-3.92-1.715-5.985-1.094zm-8.961-10.686c.07.035.131.08.201.114.42-.28.77-.665 1.016-1.111a3.15 3.15 0 0 0 .367-1.462c0-.507-.123-1.015-.367-1.461a3.1 3.1 0 0 0-1.016-1.111c-.56-.342-.63.113-.779.455a4.26 4.26 0 0 0 .578 4.586zm44.036-25.465c.052.245.157.481.297.691a1.88 1.88 0 0 0 1.26.788c.255.035.508.026.753-.044a3.8 3.8 0 0 0 1.567-.683 4 4 0 0 0 1.129-1.295c.393-.577-.114-.569-.464-.691-1.278-.455-2.45.14-3.658.359v-.018l-.455.324c.175.088.289.105.359.053-.07.078-.193.078-.394-.027h-.096v.097l-.316.446zm23.698 12.732-.341.84.236.211c.604.875.928-.114 1.173-.298 2.984-2.249 4.061-8.068 2.205-11.455-.323-.613-.639-.394-1.015-.122a12.5 12.5 0 0 0-4.052 4.463c-1.26 2.555-.866 4.962.63 7.298.403.648.596.411.832-.087.114-.28.219-.56.341-.84.053-.184.114-.377.166-.56-.052.192-.113.376-.166.56zm-14.973 12.917v-.026c.613 0 .866 1.207 1.663.525a2.2 2.2 0 0 0 .586-.99c.105-.375.114-.77.026-1.145a5.02 5.02 0 0 0-1.514-2.906c-1.111 1.164-1.155 2.538-1.058 3.912a.6.6 0 0 1 .175.087.5.5 0 0 0-.175-.07v-.017c-.018 0-.027-.018-.044-.018l.026.027c-.28.385-.087.534.271.595l-.017.035c-.385-.062-.604-.21-.306-.613-.981-.026-1.042-1.251-1.996-1.461a7.1 7.1 0 0 0-1.164 2.966 7.1 7.1 0 0 0 .245 3.177c.097.236.639.385 0 .858-1.277.98-1.199 3.378 0 4.48.298.272.631.648 1.112.447.481-.202.569-.63.656-1.042a4.17 4.17 0 0 0-.691-2.888l.192-.175s-.017-.044-.026-.061c.009.017.018.044.026.061.49.14.797.744 1.418.578.245-.919-.175-1.794-.219-3.098.342 1.216.578 2.039.832 2.932a4.95 4.95 0 0 0 .507-4.63c-.184-.516-.665-.945-.551-1.575h.026zm-2.24 5.6s-.035 0-.061.027c0 0 .043-.017.061-.026Zm-.026.158c.026.07.052.14.052.202-.017-.053-.035-.132-.052-.202M40.947 52.21c.709-2.048.017-4.253-1.995-5.741-.727-.543-1.576-1.584-2.337-1.147s-.359 1.742-.359 2.687c.026 1.61 1.024 2.818 1.558 4.21.682-.088 1.006.524 1.575.743.551.21.543-.061.473-.429q-.014-.002-.026-.017l.017-.017-.026-.027v-.009.01l.026.026v.043c.464.324.796.481 1.076-.306zm19.996-.105c-1.715-2.477-5.54-3.404-7.954-2.048-.324.184-.43.315-.22.648 1.629 2.581 5.077 4.848 8.27 2.082l-2.572-1.015c.385 0 .77.053 1.155.14.411.053.761.482 1.321.202zm-9.573-7.71c.656-.28 1.505-.578 1.347-1.462s-1.085-.919-1.934-.98a4.9 4.9 0 0 0-2.809 1.164c-.315.254-.438.516 0 .761 1.068.587 2.18 1.05 3.396.517m22.359 1.111c-.193-.324-.368-.324-.691-.201-2.162.823-3.615 4.043-2.81 6.37.604-.297.298-1.19.963-1.452v-.026.017h.009s-.009 0-.018.01c-.183.62-.367 1.294-.577 1.977 2.905-.656 4.49-4.288 3.106-6.695zm-2.494 4.612.07-.14c-.044.079-.07.158-.096.228 0-.027.008-.062.026-.088m-3.903-13.503a3.55 3.55 0 0 0 1.601.796c.481.14 1.006.088 1.453-.148.446-.237.787-.63.954-1.112h-.035c-.57.219-.57-.376-.814-.595a4.25 4.25 0 0 0-1.698-.927 4.25 4.25 0 0 0-1.934-.07c-.306.043-.805.052-.542.577a3.6 3.6 0 0 0 1.032 1.461z" clip-rule="evenodd"/></g><defs><clipPath id="a"><path fill="#fff" d="M0 0h300v187.635H0z"/></clipPath></defs></svg>